<svg xmlns="http://www.w3.org/2000/svg" width="21" height="21" fill="none"><path stroke="#000" stroke-linecap="round" stroke-linejoin="round" stroke-miterlimit="10" stroke-width="1.25" d="M1.922 3.844v9.61c0 .704.576 1.28 1.281 1.28h14.094c.705 0 1.281-.576 1.281-1.28v-9.61c0-.705-.576-1.281-1.281-1.281H3.203c-.705 0-1.281.576-1.281 1.28ZM1.922 12.172h16.656M5.766 18.578h8.968"/><path stroke="#000" stroke-linecap="round" stroke-miterlimit="10" stroke-width="1.25" d="M8.328 14.734c0 1.346-.448 2.947-1.153 3.844M13.325 18.578c-.705-.897-1.153-2.498-1.153-3.844"/><path stroke="#000" stroke-linecap="round" stroke-linejoin="round" stroke-miterlimit="10" stroke-width="1.25" d="M12.044 10.25c.064-.192.128-.384.128-.64 0-1.09-.833-1.922-1.922-1.922-1.09 0-1.922.832-1.922 1.921 0 .257.064.449.128.641"/><path stroke="#000" stroke-linecap="round" stroke-linejoin="round" stroke-miterlimit="10" stroke-width="1.25" d="M15.568 10.25c0-.192.064-.448.064-.64 0-.45-.064-.833-.129-1.218-.64.064-1.28-.192-1.601-.833a1.656 1.656 0 0 1 .128-1.793c-.577-.577-1.345-1.025-2.178-1.282-.32.577-.897 1.025-1.602 1.025-.704 0-1.281-.448-1.537-1.025-.833.257-1.538.705-2.178 1.282.384.512.448 1.217.128 1.793-.32.577-1.025.897-1.602.833-.064.385-.128.833-.128 1.217 0 .193 0 .449.064.641"/></svg>